<?xml version="1.0" encoding="iso-8859-1"?>
<!-- Generator: Adobe Illustrator 19.0.0, SVG Export Plug-In . SVG Version: 6.00 Build 0)  -->
<svg version="1.1" id="Capa_1" xmlns="http://www.w3.org/2000/svg" xmlns:xlink="http://www.w3.org/1999/xlink" x="0px" y="0px"
	 viewBox="0 0 512.006 512.006" style="enable-background:new 0 0 512.006 512.006;" xml:space="preserve">
<g transform="translate(1 1)">
	<g>
		<path d="M490.952,397.615L364.696,273.413c11.888-24.973,18.549-52.914,18.549-82.413c0-106.033-85.967-192-192-192
			s-192,85.967-192,192s85.967,192,192,192c29.237,0,56.942-6.547,81.746-18.238l124.404,126.439
			c25.733,26.237,67.983,26.432,93.993,0.422C517.392,465.62,517.187,423.377,490.952,397.615z M41.912,191
			c0-82.469,66.865-149.333,149.333-149.333S340.579,108.531,340.579,191c0,26.697-7.014,51.753-19.289,73.44
			c-0.496,0.657-0.963,1.349-1.393,2.079c-13.039,22.13-31.524,40.553-53.655,53.455c-0.688,0.401-1.34,0.837-1.964,1.297
			c-21.594,12.133-46.503,19.061-73.033,19.061C108.777,340.333,41.912,273.469,41.912,191z M461.219,461.453
			c-9.237,9.237-24.246,9.167-33.386-0.152L310.181,341.725c11.613-9.176,22.135-19.668,31.353-31.247l119.51,117.567
			C470.375,437.208,470.448,452.224,461.219,461.453z"/>
	</g>
</g>
<g>
</g>
<g>
</g>
<g>
</g>
<g>
</g>
<g>
</g>
<g>
</g>
<g>
</g>
<g>
</g>
<g>
</g>
<g>
</g>
<g>
</g>
<g>
</g>
<g>
</g>
<g>
</g>
<g>
</g>
</svg>
